<svg width="120" height="120" viewBox="0 0 120 120" fill="none" xmlns="http://www.w3.org/2000/svg">
<g clip-path="url(#clip0_265_27)">
<path d="M102.975 113.912H17.0218C11.1229 113.912 5.64341 110.858 2.54237 105.839C-0.559592 100.821 -0.841672 94.5552 1.79687 89.2781L44.7737 15.6984C47.6577 9.93228 53.5511 6.28906 59.9987 6.28906C66.4462 6.28906 72.3396 9.93228 75.2236 15.6984L118.2 89.2781C120.839 94.5552 120.557 100.821 117.455 105.839C114.354 110.858 108.875 113.912 102.975 113.912Z" fill="#489F89"/>
<path d="M102.986 113.913H59.9987V6.28939C66.4618 6.2491 72.379 9.90697 75.2319 15.707L118.198 89.2839C120.84 94.5574 120.561 100.824 117.462 105.841C114.362 110.86 108.884 113.915 102.986 113.913Z" fill="#0B775C"/>
<path d="M68.2779 95.2851C68.2779 99.8579 64.5706 103.564 59.9987 103.564C55.4268 103.564 51.7204 99.8579 51.7204 95.2851C51.7204 90.7132 55.4268 87.0068 59.9987 87.0068C64.5706 87.0068 68.2779 90.7132 68.2779 95.2851Z" fill="white"/>
<path d="M68.2779 95.2851C68.2779 97.4813 67.406 99.5868 65.8536 101.14C64.3004 102.692 62.1948 103.564 59.9987 103.564V87.0068C62.1948 87.0059 64.3004 87.8778 65.8536 89.4311C67.406 90.9834 68.2779 93.0899 68.2779 95.2851Z" fill="white"/>
<path d="M59.9987 22.8467C64.5706 22.8467 68.2779 26.5531 68.2779 31.1259V70.4494C68.2779 75.0213 64.5706 78.7277 59.9987 78.7277C55.4268 78.7277 51.7204 75.0213 51.7204 70.4494V31.1259C51.7204 26.5531 55.4268 22.8467 59.9987 22.8467Z" fill="white"/>
<path d="M68.2779 31.1259V70.4494C68.2779 72.6456 67.406 74.7511 65.8536 76.3035C64.3004 77.8568 62.1948 78.7286 59.9987 78.7277V22.8467C62.1948 22.8439 64.3031 23.7149 65.8564 25.2682C67.4087 26.8214 68.2806 28.9288 68.2779 31.1259Z" fill="white"/>
</g>
<defs>
<clipPath id="clip0_265_27">
<rect width="120" height="120" fill="white"/>
</clipPath>
</defs>
</svg>
