<svg id="Layer_1" enable-background="new 0 0 512 512" height="512" viewBox="0 0 512 512" width="512" xmlns="http://www.w3.org/2000/svg"><g><path d="m409.71 342.33-89.35-27.89c-2.75-.85-4.78-2.71-5.81-5.14h8.23c29.53 0 53.55-24 53.55-53.5v-7.31h3.07c14.51 0 26.31-11.79 26.31-26.28v-72.68c0-39.78-15.62-77.29-43.98-105.62-28.35-28.31-65.9-43.91-105.73-43.91s-77.38 15.6-105.74 43.92-43.98 65.83-43.98 105.62v26.31.01 28.08c0 12.51 10.18 22.68 22.7 22.68h6.67v29.19c0 29.5 24.02 53.5 53.55 53.5h8.23c-1.03 2.43-3.06 4.28-5.82 5.14l-89.34 27.89c-26.53 8.27-43.68 31.56-43.68 59.34v102.32c0 4.42 3.58 8 8 8h378.79c4.42 0 8-3.58 8-8v-102.33c.01-27.78-17.13-51.07-43.67-59.34zm-30.3-109.84h-3.07v-5.88h6.67c2.09 0 4.12-.29 6.05-.82-1.47 3.91-5.23 6.7-9.65 6.7zm-243.75-82.96v3.62h-6.67c-2.33 0-4.58.35-6.7 1.01v-4.63c0-73.63 59.98-133.53 133.71-133.53s133.71 59.9 133.71 133.53v4.63c-2.12-.66-4.37-1.01-6.7-1.01h-6.67v-3.62c0-66.26-53.98-120.17-120.34-120.17s-120.34 53.91-120.34 120.17z" fill="#ffcbbe"/><path d="m207.26 512h-140.65c-4.42 0-8-3.58-8-8v-102.33c0-27.78 17.15-51.07 43.68-59.34l78.87-24.62zm246.13-8v-102.33c0-27.78-17.15-51.07-43.68-59.34l-78.87-24.62-26.1 194.29h140.66c4.41 0 7.99-3.58 7.99-8z" fill="#fb4f3b"/><g fill="#ea473b"><path d="m129.98 512v-37.48c0-4.42-3.58-8-8-8s-8 3.58-8 8v37.48z"/><path d="m398.02 474.52c0-4.42-3.58-8-8-8s-8 3.58-8 8v37.48h16z"/></g><path d="m407.96 407.62h-50.01c-7.17 0-13 5.81-13 12.96v18.54c0 7.15 5.83 12.96 13 12.96h50.01c7.17 0 13-5.81 13-12.96v-18.54c-.01-7.15-5.84-12.96-13-12.96z" fill="#f4f8f8"/><path d="m415.02 445.68h-50.01c-7.17 0-13-5.81-13-12.96v-18.54c0-2.05.49-3.99 1.35-5.71-4.91 1.85-8.42 6.58-8.42 12.11v18.54c0 7.15 5.83 12.96 13 12.96h50.01c5.11 0 9.52-2.96 11.65-7.25-1.42.54-2.96.85-4.58.85z" fill="#e9f2f2"/><path d="m189.22 309.3h8.23c.48-1.15.74-2.42.74-3.78v-33.67c-19.16-16.34-31.33-40.64-31.33-67.72v-61.11c0-4.42 3.58-8 8-8 33.67 0 57.26-13.66 74.22-43 1.43-2.47 4.07-4 6.93-4s5.5 1.52 6.93 4c16.96 29.34 40.54 43 74.22 43 4.42 0 8 3.58 8 8v61.11c0 27.08-12.17 51.38-31.33 67.72v33.67c0 1.36.26 2.63.74 3.78h8.23c29.53 0 53.55-24 53.55-53.5v-106.27c0-66.26-53.98-120.17-120.34-120.17s-120.35 53.91-120.35 120.17v106.27c0 29.5 24.03 53.5 53.56 53.5z" fill="#c6824a"/><path d="m161.8 255.8v-106.27c0-61.85 47.04-112.93 107.27-119.45-4.29-.47-8.65-.71-13.07-.71-66.35 0-120.34 53.91-120.34 120.17v106.26c0 29.5 24.02 53.5 53.55 53.5h8.23c.37-.88.61-1.84.7-2.85-21.11-7.18-36.34-27.16-36.34-50.65z" fill="#bc7846"/><path d="m405.71 149.53c0-39.78-15.62-77.29-43.98-105.62-28.35-28.31-65.9-43.91-105.73-43.91s-77.38 15.6-105.74 43.92-43.98 65.83-43.98 105.62v26.31.01 28.08c0 12.51 10.18 22.68 22.7 22.68h14.67c4.42 0 8-3.58 8-8v-57.46c0-4.42-3.58-8-8-8h-14.67c-2.33 0-4.58.35-6.7 1.01v-4.63c.01-73.64 59.99-133.54 133.72-133.54s133.71 59.9 133.71 133.53v4.63c-2.12-.66-4.37-1.01-6.7-1.01h-14.67c-4.42 0-8 3.58-8 8v57.46c0 4.42 3.58 8 8 8h14.67c2.09 0 4.12-.29 6.05-.82-1.46 3.91-5.23 6.71-9.65 6.71h-76.29c-3.09-6.97-10.06-11.85-18.16-11.85h-21.12c-10.95 0-19.86 8.9-19.86 19.85 0 10.94 8.91 19.85 19.86 19.85h21.12c8.1 0 15.08-4.88 18.16-11.85h76.29c14.51 0 26.31-11.79 26.31-26.28v-72.69z" fill="#365e7d"/><g fill="#315b77"><path d="m405.06 225.79c-1.93.53-3.95.82-6.05.82h-10.31c-1.66 3.47-5.19 5.88-9.3 5.88h16c4.43 0 8.19-2.79 9.66-6.7z"/><path d="m272 16c-2.69 0-5.35.09-8 .25 70.02 4.15 125.71 62.34 125.71 133.29v3.62h9.3c2.33 0 4.58.35 6.7 1.01v-4.63c0-73.64-59.98-133.54-133.71-133.54z"/><path d="m383.77 153.18c-.25-.01-.5-.03-.76-.03h-14.67c-4.42 0-8 3.58-8 8v57.46c0 4.42 3.58 8 8 8h14.67c.26 0 .53-.02.79-.03-4.17-.28-7.46-3.74-7.46-7.97v-57.46c0-4.22 3.28-7.67 7.43-7.97z"/><path d="m122.29 203.93v-28.08-.01-21.67-4.63c0-39.78 15.62-77.29 43.98-105.62 26.44-26.42 60.89-41.76 97.73-43.7-2.66-.14-5.32-.22-8-.22-39.83 0-77.38 15.6-105.74 43.92s-43.98 65.83-43.98 105.62v26.31.01 28.08c0 12.51 10.18 22.68 22.7 22.68h14.67c.15 0 .3-.01.44-.02-12.09-.48-21.8-10.46-21.8-22.67z"/><path d="m259.97 240.49c0-10.94 8.91-19.85 19.86-19.85h-16c-10.95 0-19.86 8.9-19.86 19.85 0 10.94 8.91 19.85 19.86 19.85h16c-10.95 0-19.86-8.9-19.86-19.85z"/><path d="m143.66 153.15h-5.38v1.01c1.89-.58 3.88-.91 5.94-.98-.18-.01-.36-.03-.56-.03z"/></g><path d="m192.99 191.02v-57.5c-5.7 1-11.73 1.5-18.13 1.5-4.42 0-8 3.58-8 8v61.11c0 27.09 12.18 51.38 31.34 67.72h-.01v33.67c0 4.24-2.51 7.66-6.56 8.92l-10.48 3.27 1.05 7.83 35.56-11.1c4.05-1.26 6.56-4.68 6.56-8.92v-18.18c4.52 1.72 9.21 3.1 14.05 4.07-27.07-19.8-45.38-57.38-45.38-100.39z" fill="#f9bbaf"/><path d="m181.15 317.71-78.87 24.62c-26.53 8.27-43.68 31.56-43.68 59.34v102.33c0 4.42 3.58 8 8 8h26.13c-4.42 0-8-3.58-8-8v-102.33c0-27.78 17.15-51.07 43.68-59.34l53.78-16.79z" fill="#ea473b"/><path d="m256.95 406.09c-23.59 0-46.38-7.06-65.9-20.43-.27-.19-.55-.35-.84-.5l17.05 126.84h97.47l16.87-125.52c-19.24 12.83-41.55 19.61-64.65 19.61z" fill="#69d6f4"/></g></svg>