<svg width="100" height="106" viewBox="0 0 100 106" fill="none" xmlns="http://www.w3.org/2000/svg">
<path d="M73.4375 53V76.1875H70.3125V81.1562H67.1875V87.7812H32.8125V81.1562H29.6875V76.1875H26.5625V53H29.6875V48.0312H31.25V41.4062H68.75V48.0312H70.3125V53H73.4375Z" fill="#E6E7E8"/>
<path d="M31.25 48.0312V41.4062H12.5V48.0312H14.0625H29.6875H31.25Z" fill="#9BC9FF"/>
<path d="M29.6875 53V48.0312H14.0625V53H17.1875H26.5625H29.6875Z" fill="#BDDBFF"/>
<path d="M32.8125 81.1562H29.6875H14.0625H10.9375V87.7812H32.8125V81.1562Z" fill="#9BC9FF"/>
<path d="M29.6875 76.1875H26.5625H17.1875H14.0625V81.1562H29.6875V76.1875Z" fill="#BDDBFF"/>
<path d="M17.1875 53H26.5625V76.1875H17.1875V53Z" fill="#C2DFF6"/>
<path d="M92.1875 87.7812H89.0625H67.1875H32.8125H10.9375H7.8125V94.4062H92.1875V87.7812Z" fill="#57A4FF"/>
<path d="M7.8125 94.4062H4.6875V101.031H95.3125V94.4062H92.1875H7.8125Z" fill="#2488FF"/>
<path d="M70.3125 48.0312H85.9375H87.5V41.4062H68.75V48.0312H70.3125Z" fill="#9BC9FF"/>
<path d="M70.3125 53H73.4375H82.8125H85.9375V48.0312H70.3125V53Z" fill="#BDDBFF"/>
<path d="M67.1875 81.1562V87.7812H89.0625V81.1562H85.9375H70.3125H67.1875Z" fill="#9BC9FF"/>
<path d="M70.3125 76.1875V81.1562H85.9375V76.1875H82.8125H73.4375H70.3125Z" fill="#BDDBFF"/>
<path d="M73.4375 53H82.8125V76.1875H73.4375V53Z" fill="#C2DFF6"/>
<path d="M50 82.8125C59.4924 82.8125 67.1875 74.6557 67.1875 64.5938C67.1875 54.5318 59.4924 46.375 50 46.375C40.5076 46.375 32.8125 54.5318 32.8125 64.5938C32.8125 74.6557 40.5076 82.8125 50 82.8125Z" fill="#FBB040"/>
<path d="M50 46.375C49.4719 46.375 48.9531 46.4098 48.4375 46.4578C52.6931 46.8894 56.6442 48.9866 59.5196 52.3399C62.3949 55.6933 63.9881 60.0622 63.9881 64.5938C63.9881 69.1253 62.3949 73.4942 59.5196 76.8476C56.6442 80.2009 52.6931 82.2981 48.4375 82.7297C48.9531 82.7777 49.4719 82.8125 50 82.8125C54.5584 82.8125 58.9301 80.893 62.1534 77.4764C65.3767 74.0597 67.1875 69.4257 67.1875 64.5938C67.1875 59.7618 65.3767 55.1278 62.1534 51.7111C58.9301 48.2945 54.5584 46.375 50 46.375Z" fill="#F7941D"/>
<path d="M9.375 33.125H90.625V41.4062H9.375V33.125Z" fill="#57A4FF"/>
<path d="M78.125 53H82.8125V76.1875H78.125V53Z" fill="#96C8EF"/>
<path d="M21.875 53H26.5625V76.1875H21.875V53Z" fill="#96C8EF"/>
<path d="M9.375 33.125H90.625V36.4375H9.375V33.125Z" fill="#4E94E5"/>
<path d="M90.625 33.125H9.375L50 9.9375L90.625 33.125Z" fill="#BDDBFF"/>
<path d="M50 28.1562C52.5888 28.1562 54.6875 25.9317 54.6875 23.1875C54.6875 20.4433 52.5888 18.2188 50 18.2188C47.4112 18.2188 45.3125 20.4433 45.3125 23.1875C45.3125 25.9317 47.4112 28.1562 50 28.1562Z" fill="#F1F2F2"/>
<path d="M93.9062 30.6406L50 4.96875L6.10156 30.6406C5.67324 30.8912 5.31612 31.2589 5.06742 31.7054C4.81871 32.152 4.68752 32.6611 4.6875 33.1797C4.68688 33.6847 4.81077 34.1812 5.04691 34.6199C5.28305 35.0586 5.62323 35.4242 6.03375 35.6806C6.44427 35.937 6.91087 36.0753 7.38731 36.0817C7.86375 36.088 8.3335 35.9624 8.75 35.717L50 11.5938L91.2578 35.722C91.6741 35.9653 92.143 36.0894 92.6183 36.082C93.0936 36.0746 93.5589 35.9359 93.9682 35.6798C94.3776 35.4236 94.7169 35.0588 94.9526 34.6212C95.1883 34.1836 95.3124 33.6885 95.3125 33.1846C95.3141 32.666 95.1845 32.1565 94.9371 31.7091C94.6898 31.2616 94.3338 30.8927 93.9062 30.6406Z" fill="#57A4FF"/>
<path d="M68.75 41.4062H87.5V44.7188H68.75V41.4062Z" fill="#8CB5E5"/>
<path d="M12.5 41.4062H31.25V44.7188H12.5V41.4062Z" fill="#8CB5E5"/>
<path d="M7.8125 87.7812H92.1875V91.0938H7.8125V87.7812Z" fill="#4E94E5"/>
<path d="M4.6875 94.4062H95.3125V97.7188H4.6875V94.4062Z" fill="#207AE5"/>
<path d="M21.875 56.3125C21.4606 56.3125 21.0632 56.487 20.7701 56.7976C20.4771 57.1082 20.3125 57.5295 20.3125 57.9688V71.2188C20.3125 71.658 20.4771 72.0793 20.7701 72.3899C21.0632 72.7005 21.4606 72.875 21.875 72.875C22.2894 72.875 22.6868 72.7005 22.9799 72.3899C23.2729 72.0793 23.4375 71.658 23.4375 71.2188V57.9688C23.4375 57.5295 23.2729 57.1082 22.9799 56.7976C22.6868 56.487 22.2894 56.3125 21.875 56.3125Z" fill="#F1F2F2"/>
<path d="M78.125 56.3125C77.7106 56.3125 77.3132 56.487 77.0201 56.7976C76.7271 57.1082 76.5625 57.5295 76.5625 57.9688V71.2188C76.5625 71.658 76.7271 72.0793 77.0201 72.3899C77.3132 72.7005 77.7106 72.875 78.125 72.875C78.5394 72.875 78.9368 72.7005 79.2299 72.3899C79.5229 72.0793 79.6875 71.658 79.6875 71.2188V57.9688C79.6875 57.5295 79.5229 57.1082 79.2299 56.7976C78.9368 56.487 78.5394 56.3125 78.125 56.3125Z" fill="#F1F2F2"/>
<path d="M57.2156 64.5938C58.1795 63.7131 58.8656 62.5405 59.1814 61.2338C59.4971 59.9272 59.4275 58.5493 58.9817 57.2859C58.5359 56.0225 57.7355 54.9343 56.6883 54.168C55.6411 53.4017 54.3975 52.994 53.125 53V51.3438C53.125 50.9045 52.9604 50.4832 52.6674 50.1726C52.3743 49.862 51.9769 49.6875 51.5625 49.6875C51.1481 49.6875 50.7507 49.862 50.4576 50.1726C50.1646 50.4832 50 50.9045 50 51.3438V53H48.4109C48.4109 52.4866 48.425 51.9119 48.4375 51.3819C48.4423 51.1643 48.4066 50.948 48.3324 50.7451C48.2583 50.5422 48.1472 50.3568 48.0054 50.1994C47.8636 50.0421 47.694 49.9159 47.5062 49.828C47.3184 49.7402 47.1161 49.6925 46.9109 49.6875C46.7044 49.6767 46.4979 49.7106 46.3042 49.7871C46.1104 49.8636 45.9333 49.9812 45.7838 50.1326C45.6342 50.284 45.5153 50.466 45.4343 50.6677C45.3533 50.8694 45.3118 51.0865 45.3125 51.3057C45.2969 51.9963 45.2875 52.5296 45.2812 53H42.1875C41.7731 53 41.3757 53.1745 41.0826 53.4851C40.7896 53.7957 40.625 54.217 40.625 54.6563C40.625 55.0955 40.7896 55.5168 41.0826 55.8274C41.3757 56.138 41.7731 56.3125 42.1875 56.3125H43.75V72.875H42.1875C41.7731 72.875 41.3757 73.0495 41.0826 73.3601C40.7896 73.6707 40.625 74.092 40.625 74.5313C40.625 74.9705 40.7896 75.3918 41.0826 75.7024C41.3757 76.013 41.7731 76.1875 42.1875 76.1875H45.3125V77.8438C45.3125 78.283 45.4771 78.7043 45.7701 79.0149C46.0632 79.3255 46.4606 79.5 46.875 79.5C47.2894 79.5 47.6868 79.3255 47.9799 79.0149C48.2729 78.7043 48.4375 78.283 48.4375 77.8438V76.1875H50V77.8438C50 78.283 50.1646 78.7043 50.4576 79.0149C50.7507 79.3255 51.1481 79.5 51.5625 79.5C51.9769 79.5 52.3743 79.3255 52.6674 79.0149C52.9604 78.7043 53.125 78.283 53.125 77.8438V76.1875C54.3975 76.1935 55.6411 75.7858 56.6883 75.0195C57.7355 74.2532 58.5359 73.165 58.9817 71.9016C59.4275 70.6382 59.4971 69.2604 59.1814 67.9537C58.8656 66.647 58.1795 65.4744 57.2156 64.5938ZM56.25 59.625C56.25 60.5035 55.9208 61.3461 55.3347 61.9673C54.7487 62.5885 53.9538 62.9375 53.125 62.9375H46.875V56.3125H53.125C53.9538 56.3125 54.7487 56.6615 55.3347 57.2827C55.9208 57.9039 56.25 58.7465 56.25 59.625ZM53.125 72.875H46.875V66.25H53.125C53.9538 66.25 54.7487 66.599 55.3347 67.2202C55.9208 67.8414 56.25 68.684 56.25 69.5625C56.25 70.441 55.9208 71.2836 55.3347 71.9048C54.7487 72.526 53.9538 72.875 53.125 72.875Z" fill="#EF4136"/>
</svg>
