<svg width="100" height="100" viewBox="0 0 100 100" fill="none" xmlns="http://www.w3.org/2000/svg">
<g clip-path="url(#clip0_143_323)">
<path d="M13.2383 32.0439H20.5145V76.524H13.2383V32.0439Z" fill="#FFD88F"/>
<path d="M35.3208 32.0439H42.597V76.524H35.3208V32.0439Z" fill="#FFD88F"/>
<path d="M57.4033 32.0439H64.6795V76.524H57.4033V32.0439Z" fill="#FFD88F"/>
<path d="M79.4854 32.0439H86.7615V76.524H79.4854V32.0439Z" fill="#FFD88F"/>
<path d="M88.5468 34.1817H11.4534C9.50537 34.1817 7.92627 32.6026 7.92627 30.6546C7.92627 28.7065 9.50537 27.1274 11.4534 27.1274H88.5468C90.4948 27.1274 92.0739 28.7065 92.0739 30.6546C92.0741 32.6026 90.4948 34.1817 88.5468 34.1817Z" fill="#FFF7E8"/>
<path d="M88.5469 27.1274H80.7344C82.6824 27.1274 84.2615 28.7065 84.2615 30.6546C84.2615 32.6026 82.6824 34.1817 80.7344 34.1817H88.5469C90.4949 34.1817 92.074 32.6026 92.074 30.6546C92.0742 28.7065 90.4949 27.1274 88.5469 27.1274Z" fill="#FFF1D6"/>
<path d="M50.0004 1.46484L15.7939 27.1275H84.207L50.0004 1.46484Z" fill="#FFD88F"/>
<path d="M50.0004 11.4697L29.1299 27.1273H70.8709L50.0004 11.4697Z" fill="#FFE6B8"/>
<path d="M23.7443 72.4769H10.0947V69.2737C10.0947 67.3409 11.6617 65.7739 13.5945 65.7739H20.2445C22.1773 65.7739 23.7443 67.3409 23.7443 69.2737V72.4769Z" fill="#FFF7E8"/>
<path d="M20.2449 65.7739H13.5949C13.3965 65.7739 13.2031 65.7944 13.0137 65.8261C14.6693 66.1034 15.9322 67.5394 15.9322 69.2737V72.4769H23.7447V69.2737C23.7447 67.3407 22.1779 65.7739 20.2449 65.7739Z" fill="#FFF1D6"/>
<path d="M45.7839 72.4769H32.1343V69.2737C32.1343 67.3409 33.7013 65.7739 35.6341 65.7739H42.2841C44.2169 65.7739 45.7839 67.3409 45.7839 69.2737V72.4769Z" fill="#FFF7E8"/>
<path d="M42.284 65.7739H35.634C35.4355 65.7739 35.2422 65.7944 35.0527 65.8261C36.7084 66.1034 37.9713 67.5394 37.9713 69.2737V72.4769H45.7838V69.2737C45.7838 67.3407 44.217 65.7739 42.284 65.7739Z" fill="#FFF1D6"/>
<path d="M67.8229 72.4769H54.1733V69.2737C54.1733 67.3409 55.7403 65.7739 57.6731 65.7739H64.3231C66.256 65.7739 67.8229 67.3409 67.8229 69.2737V72.4769Z" fill="#FFF7E8"/>
<path d="M64.3231 65.7739H57.673C57.4746 65.7739 57.2813 65.7944 57.0918 65.8261C58.7475 66.1034 60.0104 67.5394 60.0104 69.2737V72.4769H67.8229V69.2737C67.8229 67.3407 66.2559 65.7739 64.3231 65.7739Z" fill="#FFF1D6"/>
<path d="M89.8625 72.4769H76.2129V69.2737C76.2129 67.3409 77.7799 65.7739 79.7127 65.7739H86.3627C88.2955 65.7739 89.8625 67.3409 89.8625 69.2737V72.4769Z" fill="#FFF7E8"/>
<path d="M86.3626 65.7739H79.7126C79.5142 65.7739 79.3208 65.7944 79.1313 65.8261C80.787 66.1034 82.0499 67.5394 82.0499 69.2737V72.4769H89.8624V69.2737C89.8624 67.3407 88.2954 65.7739 86.3626 65.7739Z" fill="#FFF1D6"/>
<path d="M4.94629 71.6074H95.0541V82.023H4.94629V71.6074Z" fill="#FFD88F"/>
<path d="M1.46484 83.6665H98.5352V93.4243H1.46484V83.6665Z" fill="#59A1A5"/>
<path d="M90.7227 83.6665H98.5352V93.4243H90.7227V83.6665Z" fill="#419296"/>
<path d="M1.46484 85.3254H98.5352V78.7207H70.6527L50 81.2986L29.3475 78.7207H1.46484V85.3254Z" fill="#B5E8E0"/>
<path d="M90.7227 78.7207H98.5352V85.3254H90.7227V78.7207Z" fill="#97DBD1"/>
<path d="M1.46484 98.5349H29.3475L50 95.2325L70.6527 98.5349H98.5352V91.9302H1.46484V98.5349Z" fill="#B5E8E0"/>
<path d="M90.7227 91.9302H98.5352V98.5349H90.7227V91.9302Z" fill="#97DBD1"/>
<path d="M29.3477 78.7207H70.6529V98.5119H29.3477V78.7207Z" fill="#FFF7E8"/>
<path d="M98.5352 77.2565H96.5187V71.6081C96.5187 70.7991 95.8631 70.1432 95.0539 70.1432H91.327V69.2741C91.327 67.1957 90.0426 65.4127 88.2266 64.6741V35.6471C94.8582 35.9432 95.1789 25.6631 88.5469 25.6631H84.6951L50.8791 0.293603C50.358 -0.0972168 49.642 -0.0972168 49.1209 0.293603L35.4189 10.5731C33.9039 11.7098 35.6619 14.0526 37.1771 12.9166L50 3.29653L79.8133 25.6631H71.359L50.8791 10.2985C50.358 9.90767 49.642 9.90767 49.1209 10.2985L28.6412 25.6631H20.1871L30.991 17.5577C32.5061 16.4211 30.7477 14.0772 29.2328 15.2141L15.3049 25.6631H11.4533C4.82129 25.6631 5.14199 35.9434 11.7736 35.6471V64.6569C9.93477 65.3848 8.63008 67.1793 8.63008 69.2741V70.1432H4.94609C4.13691 70.1432 3.48125 70.7991 3.48125 71.6081V77.2565H1.46484C0.655664 77.2565 0 77.9123 0 78.7213V98.5356C0 99.3446 0.655664 100 1.46484 100H81.25C83.1439 100 83.1439 97.0707 81.25 97.0707H72.1174V93.3957H97.0703V97.0707H89.9748C88.0809 97.0707 88.0809 100 89.9748 100H98.5352C99.3443 100 100 99.3446 100 98.5356V78.7213C100 77.9123 99.3443 77.2565 98.5352 77.2565ZM97.0703 80.1862V83.8612H72.1174V80.1862H97.0703ZM88.3973 69.2741V70.1432H77.6773V69.2741C77.6773 68.152 78.5902 67.2391 79.7123 67.2391H86.3623C87.4844 67.2391 88.3973 68.152 88.3973 69.2741ZM66.1441 64.6569V35.6471H78.0207V64.6065C76.1137 65.2998 74.7477 67.1303 74.7477 69.2741V70.1432H69.2877V69.2741C69.2877 67.1793 67.983 65.3848 66.1441 64.6569ZM44.0617 64.6399V35.6471H55.9385V64.6229C54.0541 65.328 52.7086 67.1467 52.7086 69.2741V70.1432H47.2486V69.2741C47.2484 67.1629 45.9234 65.3565 44.0617 64.6399ZM21.9793 64.6229V35.6471H33.8559V64.6399C31.9943 65.3567 30.6693 67.1629 30.6693 69.2741V70.1432H25.2094V69.2741C25.2092 67.1465 23.8637 65.328 21.9793 64.6229ZM33.5988 69.2741C33.5988 68.152 34.5117 67.2391 35.6338 67.2391H42.2838C43.4059 67.2391 44.3188 68.152 44.3188 69.2741V70.1432H33.5988V69.2741ZM36.7855 64.3094V35.6471H41.132V64.3094H36.7855ZM55.6381 69.2741C55.6381 68.152 56.551 67.2391 57.673 67.2391H64.323C65.4451 67.2391 66.358 68.152 66.358 69.2741V70.1432H55.6381V69.2741ZM58.868 64.3094V35.6471H63.2145V64.3094H58.868ZM80.9504 64.3094V35.6471H85.2969V64.3094H80.9504ZM50 13.3016L66.477 25.6631H33.523L50 13.3016ZM11.4533 32.7174C10.3162 32.7174 9.39102 31.7922 9.39102 30.6551C9.39102 29.518 10.316 28.5928 11.4533 28.5928H88.5469C91.1266 28.5928 91.2447 32.7174 88.5469 32.7174C62.8488 32.7174 37.1512 32.7174 11.4533 32.7174ZM19.0496 35.6471V64.3094H14.7031V35.6471H19.0496ZM11.5598 69.2741C11.5598 68.152 12.4727 67.2391 13.5947 67.2391H20.2447C21.3668 67.2391 22.2797 68.152 22.2797 69.2741V70.1432H11.5598V69.2741ZM27.8826 97.0707H2.92969V93.3957H27.8826V97.0707ZM27.8826 90.4661H2.92969V86.7911H27.8826V90.4661ZM27.8826 83.8612H2.92969V80.1862H27.8826V83.8612ZM69.1877 97.0477H30.8123V80.1862H69.1877V97.0477ZM6.41094 77.1975V73.0729H93.5891V77.1975H6.41094ZM72.1174 90.4661V86.7911H97.0703V90.4661H72.1174Z" fill="black"/>
</g>
<defs>
<clipPath id="clip0_143_323">
<rect width="100" height="100" fill="white"/>
</clipPath>
</defs>
</svg>
