<svg width="100" height="90" viewBox="0 0 100 90" fill="none" xmlns="http://www.w3.org/2000/svg">
<path d="M28.7534 51.2036H25.354V53.9954H28.8296C29.9981 53.9922 30.9259 53.5811 30.9259 52.5708C30.9259 51.5223 30.0955 51.2036 28.7534 51.2036Z" fill="black"/>
<path d="M41.8395 51.8745H41.7988L39.9805 56.9259H43.5977L41.8395 51.8745Z" fill="black"/>
<path d="M29.127 56.1416H25.354V59.5564H28.9889C30.4301 59.5564 31.2605 58.9844 31.2605 57.6889C31.2605 56.5687 30.1947 56.1416 29.127 56.1416Z" fill="black"/>
<path d="M97.4256 15.8374H2.57436C1.15085 15.8374 0 16.8748 0 18.1543V71.8452C0 73.1248 1.15085 74.1637 2.57436 74.1637H97.4256C98.8492 74.1637 100 73.1264 100 71.8468V18.1543C100 16.8748 98.8492 15.8374 97.4256 15.8374ZM37.6239 35.3879C37.6824 34.8764 37.7585 34.325 37.9727 33.7625C38.1533 33.1936 38.3127 32.569 38.6579 31.9874C38.8102 31.6878 38.966 31.3803 39.1289 31.0711C39.2989 30.7652 39.5343 30.4911 39.738 30.1931C40.1381 29.5812 40.6604 29.0426 41.1933 28.504C41.7086 27.9415 42.346 27.5129 42.9232 27.0173C43.5588 26.6125 44.1643 26.1441 44.8141 25.8142C45.4533 25.4509 46.0818 25.1258 46.705 24.8581C47.3176 24.5617 47.9249 24.3594 48.4791 24.1363C49.3378 23.8351 50.0974 23.604 50.7241 23.4383C50.4621 22.8583 50.2373 22.2544 50.0708 21.6106C49.8991 20.9477 49.7504 20.2705 49.7326 19.5008C50.5542 19.708 51.2465 20.0107 51.9175 20.3247C52.585 20.6434 53.194 20.9987 53.7642 21.3843C54.915 22.1476 55.8941 23.0288 56.7829 23.9737C57.4575 24.6908 57.5159 25.6883 57.0149 26.4516L56.9104 26.6062C56.0942 27.8363 55.1222 28.9773 53.9465 30.0003C53.3658 30.5134 52.7195 30.993 52.0131 31.4344C51.6501 31.6511 51.2748 31.8615 50.8906 32.0639C50.4922 32.2599 50.0708 32.4399 49.6105 32.5993C49.5804 32.1563 49.5857 31.7356 49.6211 31.3293C49.6671 30.9293 49.722 30.5373 49.7911 30.1501C49.9433 29.3884 50.1611 28.6634 50.4409 27.9718C50.4692 27.8969 50.5028 27.8268 50.5347 27.7535C50.262 27.7822 49.9788 27.8172 49.6707 27.8571C49.1891 27.9495 48.6402 28.0132 48.0931 28.1566C47.5283 28.2714 46.9547 28.4323 46.3704 28.6235C45.7578 28.7861 45.2089 29.0665 44.5857 29.2912C44.0386 29.5955 43.4065 29.8457 42.8877 30.217C42.3442 30.5708 41.7953 30.9293 41.3456 31.3691C41.119 31.581 40.8516 31.777 40.6445 32.0065C40.4479 32.2407 40.2496 32.475 40.0567 32.7044C39.6282 33.149 39.3644 33.6621 39.074 34.1402C38.7553 34.6086 38.5623 35.0963 38.3959 35.5536C38.2401 36.0109 38.0152 36.4252 37.9497 36.8156C37.8665 37.2076 37.7939 37.547 37.7355 37.8291C37.6186 38.3996 37.5496 38.7246 37.5496 38.7246C37.5496 38.7246 37.539 38.3948 37.5177 37.8163C37.5071 37.5247 37.4965 37.1694 37.4823 36.7614C37.454 36.3471 37.5708 35.8978 37.6239 35.3879ZM40.1381 48.9946H43.5552L48.5552 61.76H45.3364L44.4263 59.1308H39.1909L38.2011 61.76H35.0814L40.1381 48.9946ZM28.4171 64.9422H26.2181V70.3234H24.7043V64.9422H22.5089V63.7838H28.4189L28.4171 64.9422ZM22.5053 61.76V48.993H29.4016C32.8807 48.993 33.7695 50.9514 33.7695 52.2676C33.7695 54.1002 32.6222 54.6149 32.0308 54.881C33.7695 55.4674 34.2227 56.7119 34.2227 57.9723C34.2227 58.9826 33.75 59.9467 32.9993 60.6032C32.1902 61.3171 31.42 61.76 28.5145 61.76H22.5053ZM33.7288 70.325C33.6278 70.0191 33.5694 69.6813 33.5694 69.0056C33.5694 68.1164 33.5074 67.7691 32.3831 67.7691H30.8162V70.325H29.3254V63.7854H33.0011C34.9345 63.7854 35.2868 65.0697 35.2868 65.6338C35.2868 66.3572 34.8814 66.9739 34.1625 67.1922C34.7592 67.4281 35.085 67.6288 35.085 68.8495C35.085 69.8039 35.085 70.043 35.4072 70.1513L35.409 70.325H33.7288ZM41.1243 70.3234L40.6569 68.9753H37.9763L37.4717 70.3234H35.8711L38.4614 63.7838H40.2142L42.7727 70.3234H41.1243ZM49.6016 70.325H48.0807L45.1169 65.6625H45.0956V70.325H43.6809V63.7854H45.278L48.1657 68.3379H48.1834V63.7854H49.6016V70.325ZM47.8329 43.2469C48.1161 43.8206 48.3587 44.4197 48.5482 45.0571C48.7376 45.7152 48.9111 46.3877 48.9554 47.1542C48.1215 46.9693 47.4239 46.6905 46.7458 46.3909C46.0659 46.0913 45.4426 45.7487 44.8619 45.3822C43.6898 44.6508 42.6806 43.7951 41.7599 42.8756C41.0606 42.1777 40.9667 41.1802 41.4448 40.4042L41.5457 40.248C42.3194 38.9971 43.2525 37.8291 44.3945 36.7758C44.9575 36.2452 45.5825 35.7496 46.2783 35.2891C46.6342 35.0628 46.9972 34.8429 47.3778 34.631C47.7691 34.4254 48.1834 34.231 48.6402 34.0621C48.6863 34.5019 48.6933 34.9242 48.6686 35.3305C48.6385 35.7321 48.596 36.1257 48.5411 36.5145C48.4136 37.2825 48.2206 38.0123 47.9639 38.7103C47.9356 38.7852 47.9019 38.8553 47.8771 38.9302C48.1462 38.8935 48.4295 38.8521 48.7376 38.8027C49.2157 38.6975 49.761 38.621 50.301 38.4617C50.8623 38.3326 51.4341 38.1573 52.0096 37.9486C52.6169 37.7717 53.1569 37.4753 53.7695 37.2347C54.3024 36.9144 54.9345 36.6499 55.4338 36.2643C55.9685 35.8978 56.5085 35.5233 56.937 35.0724C57.1654 34.8525 57.4239 34.6501 57.6239 34.4174C57.8116 34.1752 58.0011 33.9362 58.1852 33.702C58.5977 33.2446 58.8456 32.7252 59.1165 32.2407C59.4193 31.7643 59.5963 31.2719 59.745 30.8098C59.8867 30.3477 60.0974 29.9286 60.1523 29.5366C60.2213 29.143 60.2815 28.8004 60.3293 28.5184C60.4338 27.9463 60.4887 27.6196 60.4887 27.6196C60.4887 27.6196 60.5135 27.9479 60.5506 28.5247C60.5683 28.8163 60.5914 29.1733 60.6197 29.5796C60.6604 29.9923 60.5613 30.4465 60.5259 30.9548C60.4851 31.4647 60.4249 32.0208 60.2319 32.5881C60.0708 33.1602 59.9327 33.7896 59.6052 34.3792C59.4653 34.6835 59.3166 34.9943 59.1661 35.3082C59.0032 35.6189 58.7819 35.901 58.5871 36.2037C58.2047 36.8268 57.7054 37.3765 57.1902 37.9295C56.6926 38.5031 56.0729 38.9525 55.5099 39.4608C54.8849 39.8831 54.2936 40.3675 53.6562 40.7149C53.0312 41.0941 52.4115 41.4367 51.7989 41.7204C51.1951 42.0343 50.5949 42.2542 50.0478 42.49C49.2015 42.8119 48.4508 43.0637 47.8329 43.2469ZM50.3187 48.9946H53.4402L59.0722 57.8847H59.1112V48.9946H61.8768V61.7616H58.9164L53.125 52.6581H53.086V61.7616H50.3187V48.9946ZM53.7996 70.4987C51.1491 70.4987 50.6958 69.1235 50.6958 68.3124H52.1477C52.1583 68.6774 52.3619 69.3689 53.6898 69.3689C54.4051 69.3689 55.2072 69.2144 55.2072 68.5228C55.2072 68.0113 54.6618 67.8758 53.8899 67.7117L53.1126 67.546C51.937 67.3038 50.8056 67.0663 50.8056 65.6258C50.8056 64.8976 51.2376 63.6117 53.596 63.6117C55.8233 63.6117 56.4182 64.9231 56.4288 65.7246H54.977C54.9309 65.4362 54.8141 64.7414 53.4862 64.7414C52.9125 64.7414 52.2203 64.9327 52.2203 65.5238C52.2203 66.0369 52.6877 66.1453 52.9922 66.2075L54.7592 66.5994C55.7542 66.8162 56.6643 67.1843 56.6643 68.3587C56.6643 70.3234 54.437 70.4987 53.7996 70.4987ZM62.994 64.9422H59.3431V66.4178H62.5389V67.5747H59.3431V70.325H57.8258V63.7854H62.994V64.9422ZM69.5308 70.3234H64.0156V63.7838H69.3591V64.9438H65.5028V66.3174H69.0439V67.4743H65.5028V69.1681H69.5308V70.3234ZM76.852 70.325H75.1753C75.0744 70.0191 75.0159 69.6813 75.0159 69.0056C75.0159 68.1164 74.9504 67.7691 73.8297 67.7691H72.2627V70.325H70.772V63.7854H74.4441C76.3775 63.7854 76.7334 65.0697 76.7334 65.6338C76.7334 66.3572 76.3226 66.9739 75.6073 67.1922C76.2022 67.4281 76.5297 67.6288 76.5297 68.8495C76.5297 69.8039 76.5297 70.043 76.852 70.1513V70.325ZM77.4929 61.7632H73.6792L69.2936 56.1605L67.9108 57.4401V61.7632H64.9469V48.9946H67.9108V54.1878L73.3268 48.9946H77.1583L71.3686 54.2213L77.4929 61.7584V61.7632Z" fill="black"/>
<path d="M74.1517 64.9136H72.2661V66.6632H74.0437C74.8334 66.6632 75.2194 66.4178 75.2194 65.7693C75.2158 65.4235 75.0441 64.9136 74.1517 64.9136Z" fill="black"/>
<path d="M39.3291 65.2627H39.3149L38.3818 67.8473H40.2356L39.3291 65.2627Z" fill="black"/>
<path d="M32.7054 64.9136H30.8145V66.6632H32.5921C33.3835 66.6632 33.7677 66.4178 33.7677 65.7693C33.7677 65.4235 33.5942 64.9136 32.7054 64.9136Z" fill="black"/>
</svg>
