<svg width="100" height="100" viewBox="0 0 100 100" fill="none" xmlns="http://www.w3.org/2000/svg">
<path d="M100 78.5705C100 81.8354 97.3535 84.482 94.0889 84.482H5.91113C2.64648 84.482 0 81.835 0 78.5705V21.4289C0 18.1641 2.64648 15.5176 5.91113 15.5176H94.0887C97.3535 15.5176 99.9998 18.1643 99.9998 21.4289L100 78.5705Z" fill="#E7E8E3"/>
<path opacity="0.15" d="M4.20254 78.5705V21.4289C4.20254 18.1641 6.84941 15.5176 10.1141 15.5176H5.91094C2.64648 15.5176 0 18.1645 0 21.4289V78.5705C0 81.8354 2.64648 84.482 5.91113 84.482H10.1143C6.84961 84.482 4.20254 81.835 4.20254 78.5705Z" fill="#202121"/>
<path d="M28.5479 35.0371H35.9779C38.7141 34.9927 41.717 35.7046 41.717 39.0193C41.717 40.4429 40.8715 41.5996 39.626 42.2224C41.3162 42.7117 42.3625 44.1802 42.3625 45.982C42.3625 49.7638 39.5814 50.9203 36.1779 50.9203H28.5479V35.0371ZM32.6852 41.2882H35.8891C36.6006 41.2882 37.5793 40.9099 37.5793 39.7755C37.5793 38.6187 36.7561 38.2408 35.8891 38.2408H32.6852V41.2882ZM32.6852 47.6058H36C37.3123 47.6058 38.2244 47.1388 38.2244 45.8263C38.2244 44.4248 37.2457 43.9576 36 43.9576H32.6852V47.6058Z" fill="#006E90"/>
<path d="M48.9232 35.0371H53.1271L59.0668 50.9203H54.7512L53.7725 48.073H48.2334L47.2322 50.9203H42.9834L48.9232 35.0371ZM49.1898 45.0035H52.7934L51.0359 39.4422H50.9918L49.1898 45.0035Z" fill="#006E90"/>
<path d="M60.2217 35.0371H64.4711L69.9879 44.8252H70.032V35.0371H73.9256V50.9203H69.6762L64.1594 41.0215H64.1152V50.9203H60.2217V35.0371Z" fill="#006E90"/>
<path d="M76.7495 35.0371H80.8872V41.1326L86.1147 35.0371H91.2536L85.3806 41.2883L91.9878 50.9205H86.8493L82.578 44.2473L80.8874 46.027V50.9207H76.7497V35.0373L76.7495 35.0371Z" fill="#006E90"/>
<path d="M18.143 56.6831H14.8795V65.1698H12.0307V56.6831H8.76758V54.2319H18.143V56.6831Z" fill="#66CDE7"/>
<path d="M19.3989 54.2324H24.9751C26.9054 54.2324 28.8048 55.1059 28.8048 57.3113C28.8048 58.491 28.2386 59.6094 27.0894 60.0539V60.0842C28.2534 60.3604 28.5901 61.6619 28.6823 62.7039C28.713 63.1633 28.7593 64.7717 29.1421 65.1705H26.3228C26.0778 64.8029 26.0319 63.7305 26.0013 63.4242C25.9243 62.3211 25.7411 61.1877 24.4083 61.1877H22.2483V65.1705H19.3989V54.2324ZM22.2489 58.9811H24.638C25.496 58.9811 25.9556 58.5217 25.9556 57.6947C25.9556 56.883 25.3122 56.5146 24.5157 56.5146H22.2487L22.2489 58.9811Z" fill="#66CDE7"/>
<path d="M33.4313 54.2324H36.3266L40.4166 65.1703H37.4443L36.7709 63.2092H32.9563L32.2672 65.1703H29.3408L33.4313 54.2324ZM33.6152 61.0953H36.0971L34.8867 57.265H34.8561L33.6152 61.0953Z" fill="#66CDE7"/>
<path d="M41.2139 54.2324H44.1396L47.9391 60.9728H47.9701V54.2324H50.651V65.1703H47.7252L43.9254 58.3535H43.8947V65.1703H41.2139V54.2324Z" fill="#66CDE7"/>
<path d="M54.8172 61.4934C54.8787 62.7801 55.6752 63.1934 56.8856 63.1934C57.7432 63.1934 58.6318 62.8873 58.6318 62.0754C58.6318 61.1104 57.0691 60.9266 55.4916 60.4818C53.9289 60.0377 52.2897 59.3334 52.2897 57.3262C52.2897 54.9365 54.6949 54.002 56.7479 54.002C58.923 54.002 61.1135 55.0586 61.1291 57.5252H58.2797C58.3256 56.5295 57.391 56.2078 56.5178 56.2078C55.9051 56.2078 55.1391 56.4221 55.1391 57.1424C55.1391 57.9848 56.7168 58.1379 58.31 58.5824C59.8883 59.0266 61.4813 59.7617 61.4813 61.7379C61.4813 64.5109 59.1219 65.3996 56.717 65.3996C54.2047 65.3996 51.9838 64.2963 51.9678 61.4932H54.8172V61.4934Z" fill="#66CDE7"/>
<path d="M62.814 54.2324H70.8722V56.5148H65.6638V58.7516H70.1675V60.957H65.6638V65.1703H62.814V54.2324Z" fill="#66CDE7"/>
<path d="M72.1748 54.2324H80.8914V56.5148H75.024V58.4299H80.3857V60.6357H75.024V62.7193H81.0447V65.1701H72.175L72.1748 54.2324Z" fill="#66CDE7"/>
<path d="M82.6685 54.2324H88.2446C90.1749 54.2324 92.0739 55.1059 92.0739 57.3113C92.0739 58.491 91.5075 59.6094 90.3585 60.0539V60.0842C91.5226 60.3604 91.8599 61.6619 91.9515 62.7039C91.9825 63.1633 92.028 64.7717 92.4112 65.1705H89.5923C89.3468 64.8029 89.3015 63.7305 89.2706 63.4242C89.194 62.3211 89.0105 61.1877 87.6776 61.1877H85.5179V65.1705H82.6685V54.2324ZM85.5179 58.9811H87.9079C88.7655 58.9811 89.2247 58.5217 89.2247 57.6947C89.2247 56.883 88.5819 56.5146 87.7849 56.5146H85.5179V58.9811Z" fill="#66CDE7"/>
<path d="M26.0137 35.0352H8.76758V38.4887H26.0137V35.0352Z" fill="#D92B2B"/>
<path d="M26.0137 47.4668H8.76758V50.9201H26.0137V47.4668Z" fill="#D92B2B"/>
<path d="M26.0137 41.25H8.76758V44.7035H26.0137V41.25Z" fill="#D92B2B"/>
</svg>
