<svg width="100" height="100" viewBox="0 0 100 100" fill="none" xmlns="http://www.w3.org/2000/svg">
<g clip-path="url(#clip0_143_282)">
<path d="M3.90625 23.4817V23.4907C3.90625 29.1784 8.51699 33.7892 14.2047 33.7892H25.9234C20.2357 33.7892 15.625 29.1784 15.625 23.4907V23.4817C15.625 18.8644 18.6982 14.8114 23.1443 13.5655L23.1773 10.272L11.4256 13.5653C6.97949 14.8114 3.90625 18.8644 3.90625 23.4817Z" fill="#CEE1F2"/>
<path d="M89.6135 9.80909L58.844 1.22219C52.9929 -0.410614 46.8081 -0.40749 40.9591 1.23216L10.3715 9.80421C4.26484 11.5157 0 17.1401 0 23.4907C0 31.3233 6.37206 37.6954 14.2047 37.6954H85.7953C93.6277 37.6954 100 31.3233 100 23.4907C99.9998 17.1419 95.7289 11.5155 89.6135 9.80909ZM85.7953 29.8829H14.2047C10.6801 29.8829 7.81248 27.0153 7.81248 23.4817C7.81248 20.628 9.73162 18.097 12.4797 17.3267L43.0671 8.75441C45.3083 8.12648 47.6138 7.81242 49.9192 7.81242C52.2151 7.81242 54.5114 8.12413 56.7438 8.74698L87.5135 17.3339C90.2654 18.102 92.1873 20.6337 92.1873 23.4907C92.1873 27.0153 89.3199 29.8829 85.7953 29.8829ZM57.8124 84.375C55.655 84.375 53.9061 82.6261 53.9061 80.4687V49.0235C53.9061 46.8661 55.655 45.1172 57.8124 45.1172C59.9698 45.1172 61.7186 46.8661 61.7186 49.0235V80.4687C61.7186 82.6261 59.9698 84.375 57.8124 84.375ZM41.9921 84.375C39.8347 84.375 38.0859 82.6261 38.0859 80.4687V49.0235C38.0859 46.8661 39.8347 45.1172 41.9921 45.1172C44.1495 45.1172 45.8983 46.8661 45.8983 49.0235V80.4687C45.8983 82.6261 44.1495 84.375 41.9921 84.375ZM10.7422 84.5703C8.58475 84.5703 6.83592 82.8215 6.83592 80.664V49.0235C6.83592 46.8661 8.58475 45.1172 10.7422 45.1172C12.8996 45.1172 14.6484 46.8661 14.6484 49.0235V80.664C14.6484 82.8215 12.8996 84.5703 10.7422 84.5703ZM26.5624 84.375C24.405 84.375 22.6562 82.6261 22.6562 80.4687V49.0235C22.6562 46.8661 24.405 45.1172 26.5624 45.1172C28.7199 45.1172 30.4687 46.8661 30.4687 49.0235V80.4687C30.4687 82.6261 28.7199 84.375 26.5624 84.375ZM66.7967 96.0937C66.7967 98.2511 65.0479 99.9999 62.8905 99.9999H3.90624C1.74882 99.9999 0 98.2511 0 96.0937C0 93.9363 1.74882 92.1874 3.90624 92.1874H62.8905C65.0479 92.1874 66.7967 93.9363 66.7967 96.0937Z" fill="#1428BF"/>
<path d="M100 80.3861C100 83.7854 98.6207 86.9869 96.1158 89.4006C94.3457 91.1064 92.1809 92.2586 89.8438 92.7672V96.0938C89.8438 98.2512 88.0949 100 85.9375 100C83.7801 100 82.0312 98.2512 82.0312 96.0938V92.485C79.4266 91.9857 76.3721 91.1547 73.3617 89.9582C71.3568 89.1611 70.3777 86.89 71.1746 84.8852C71.9717 82.8803 74.243 81.902 76.2475 82.698C80.6766 84.4588 85.2504 85.2506 87.0836 85.2506C89.8502 85.2506 92.1873 83.023 92.1873 80.3861C92.1873 77.7039 89.4387 75.5217 86.0604 75.5217C82.0197 75.5217 78.4889 74.3105 75.85 72.0189C73.1609 69.6836 71.6797 66.442 71.6797 62.8906C71.6797 56.3836 76.1865 51.1625 82.2266 50.2945V46.4844C82.2266 44.327 83.9754 42.5781 86.1328 42.5781C88.2902 42.5781 90.0391 44.327 90.0391 46.4844V50.7584C91.9963 51.1453 94.2826 51.7775 96.9236 52.8047C98.9344 53.5865 99.9305 55.8504 99.1484 57.8611C98.3664 59.8719 96.1027 60.8682 94.092 60.0859C89.2922 58.2193 86.185 57.9801 84.0141 57.9801C81.4361 57.9801 79.4922 60.0912 79.4922 62.8908C79.4922 65.773 82.1318 67.7094 86.0605 67.7094C93.7469 67.7092 100 73.3961 100 80.3861ZM50 14.4531C47.3033 14.4531 45.1172 16.6393 45.1172 19.3359C45.1172 22.0326 47.3033 24.2188 50 24.2188C52.6967 24.2188 54.8828 22.0326 54.8828 19.3359C54.8828 16.6393 52.6967 14.4531 50 14.4531Z" fill="#FF5CF4"/>
</g>
<defs>
<clipPath id="clip0_143_282">
<rect width="100" height="100" fill="white"/>
</clipPath>
</defs>
</svg>
