<svg width="100" height="100" viewBox="0 0 100 100" fill="none" xmlns="http://www.w3.org/2000/svg">
<g clip-path="url(#clip0_143_445)">
<path d="M69.3728 94.5008C70.6613 95.7762 72.0955 96.886 73.6324 97.817V99.9301H0V92.1176H67.2791C67.9133 92.9504 68.6115 93.7473 69.3728 94.5008ZM89.2573 37.6258V45.1681C91.2028 45.7941 93.0034 46.8675 94.4743 48.3237C96.8449 50.6704 98.1506 53.738 98.1506 56.9618H90.3381C90.3381 55.8401 89.8551 54.7442 88.9784 53.8762C87.9833 52.8913 86.6223 52.3292 85.2407 52.3485C83.8636 52.3626 82.4685 52.9311 81.4136 53.9087C80.8347 54.445 79.8659 55.5786 79.8822 57.144C79.9185 60.6412 82.3857 62.3051 87.3042 64.774C92.8729 67.568 99.9178 71.0576 99.9992 78.8829C100.038 82.6587 98.5434 86.2636 95.7893 89.0333C93.9366 90.8967 91.6903 92.2008 89.2573 92.8627V99.9301H81.4448V92.7848C78.9945 92.086 76.7128 90.7737 74.8687 88.9481C72.1822 86.2891 70.7027 82.8366 70.7027 79.2271H78.5152C78.5152 80.7349 79.172 82.2153 80.3646 83.3958C81.731 84.7483 83.654 85.5509 85.521 85.5509C85.5433 85.5509 85.5653 85.5507 85.5876 85.5505C87.2876 85.5331 88.9866 84.7948 90.2493 83.5249C91.5163 82.2507 92.2043 80.6312 92.187 78.9642C92.1583 76.2056 89.3895 74.6152 83.7884 71.8052C79.2116 69.5078 72.1597 65.8688 72.0699 57.2253C72.0345 53.8337 73.4672 50.6206 76.1039 48.1777C77.6288 46.7648 79.4763 45.7189 81.4446 45.1189V37.626H60.8676C61.4145 38.9855 61.7184 40.4677 61.7184 42.0205V86.0632H6.8359V42.0205C6.8359 40.4677 7.14 38.9855 7.68667 37.626H0V24.6489L49.8983 0.0703125L99.9994 24.644V37.6258H89.2573ZM22.6561 42.0203C22.6561 39.8125 20.86 38.0164 18.6522 38.0164C16.4444 38.0164 14.6484 39.8125 14.6484 42.0203V78.2505H22.6561V42.0203ZM38.9365 37.6258H29.6176C30.1645 38.9853 30.4684 40.4675 30.4684 42.0203V78.2505H38.0855V42.0203C38.0857 40.4675 38.3898 38.9853 38.9365 37.6258ZM53.9059 42.0203C53.9059 39.8125 52.1099 38.0164 49.9021 38.0164C47.6943 38.0164 45.8982 39.8125 45.8982 42.0203V78.2505H53.9059V42.0203ZM92.187 29.8133V29.5139L49.9058 8.77534L7.81245 29.5092V29.8133H92.187Z" fill="url(#paint0_linear_143_445)"/>
</g>
<defs>
<linearGradient id="paint0_linear_143_445" x1="0" y1="50.0001" x2="100" y2="50.0001" gradientUnits="userSpaceOnUse">
<stop stop-color="#8DF49B"/>
<stop offset="1" stop-color="#589CF9"/>
</linearGradient>
<clipPath id="clip0_143_445">
<rect width="100" height="100" fill="white"/>
</clipPath>
</defs>
</svg>
